<svg width="12" height="18" xmlns="http://www.w3.org/2000/svg">
 <title>Certificate</title>
 <g>
  <title>Layer 1</title>
  <g id="Page-1" fill="none" fill-rule="evenodd">
   <g id="Certificate" fill="#9CC27A">
    <path d="m9.06492,11.10805l-1.10828,1.95793l-1.95628,-1.15249l-1.95628,1.15249l-1.10828,-1.95793l-0.78363,0.01168l0,6.11293l3.84819,-3.43616l3.84819,3.43135l0,-6.10812l-0.78363,-0.01168zm0,0" id="Shape"/>
    <path d="m10.90645,5.89333l0.93896,-1.53803l-1.59595,-0.87141l0.03009,-1.79299l-1.82544,0.02886l-0.88718,-1.56689l-1.56587,0.92295l-1.56587,-0.92295l-0.88718,1.56689l-1.82544,-0.02886l0.03009,1.79299l-1.59595,0.87141l0.93896,1.53803l-0.93896,1.53803l1.59595,0.87141l-0.03009,1.79299l1.82544,-0.02886l0.88718,1.56689l1.56587,-0.92295l1.56587,0.92295l0.88718,-1.56689l1.82544,0.02886l-0.03009,-1.79299l1.59595,-0.87141l-0.93896,-1.53803l0,0zm-5.46723,-2.7826l-0.70667,-0.4467l-0.40301,0.75802l-0.87179,-0.01443l0.02029,0.87072l-0.76894,0.42127l0.45689,0.64256l-1.18454,0.89546l0.33654,-0.4467l-0.70527,-1.10232l1.19783,-0.62744l-0.02169,-1.33392l1.37066,0.02818l0.66539,-1.17242l1.0705,0.69479l0.45478,-0.3285l-0.91097,1.16142l0,0l0,0.00001zm0,0" id="Shape"/>
   </g>
  </g>
 </g>
</svg>