<?xml version="1.0" encoding="UTF-8" standalone="no"?>
<svg width="16px" height="16px" viewBox="0 0 16 16" version="1.1" xmlns="http://www.w3.org/2000/svg" xmlns:xlink="http://www.w3.org/1999/xlink" xmlns:sketch="http://www.bohemiancoding.com/sketch/ns">
    <title>Certificate_awaiting</title>
    <description>Created with Sketch (http://www.bohemiancoding.com/sketch)</description>
    <defs></defs>
    <g id="Page-1" stroke="none" stroke-width="1" fill="none" fill-rule="evenodd" sketch:type="MSPage">
        <g id="Certificate-awaiting" sketch:type="MSLayerGroup" transform="translate(1.000000, 1.000000)">
            <path d="M12.7745882,6.87555556 L13.8797647,5.06526222 L12.0012941,4.03959111 L12.0367059,1.9292 L9.88811765,1.96317333 L8.84388235,0.118906667 L7.00082353,1.20524444 L5.15776471,0.118906667 L4.11352941,1.96317333 L1.96494118,1.9292 L2.00035294,4.03959111 L0.121882353,5.06526222 L1.22705882,6.87555556 L0.121882353,8.68584889 L2.00035294,9.71152 L1.96494118,11.8219111 L4.11352941,11.7879378 L5.15776471,13.6322044 L7.00082353,12.5458667 L8.84388235,13.6322044 L9.88811765,11.7879378 L12.0367059,11.8219111 L12.0012941,9.71152 L13.8797647,8.68584889 L12.7745882,6.87555556 L12.7745882,6.87555556 Z M12.7745882,6.87555556" id="Shape" stroke="#FF3700" sketch:type="MSShapeGroup"></path>
            <path d="M7.47630108,8.44237307 L6.47171326,8.44237307 L6.47171326,7.98639676 C6.47171326,7.65841216 6.5195503,7.38242925 6.61522581,7.15843977 C6.71090131,6.93445029 6.83049391,6.73846243 6.97400717,6.57047031 C7.11752043,6.4024782 7.27391074,6.25248749 7.4431828,6.12049369 C7.61245485,5.98849989 7.76884516,5.85650806 7.91235842,5.72451426 C8.05587169,5.59252046 8.17546428,5.45052925 8.27113978,5.29853639 C8.36681529,5.14654352 8.41465233,4.95855517 8.41465233,4.73456568 C8.41465233,4.39858146 8.3134586,4.14259732 8.1110681,3.96660558 C7.9086776,3.79061384 7.62717504,3.70261929 7.26655197,3.70261929 C7.00896406,3.70261929 6.75138002,3.77061508 6.49379211,3.9066087 C6.23620421,4.04260231 5.99333925,4.26258868 5.76518996,4.56657441 L5.05866667,3.99060433 C5.38249146,3.58262349 5.73206981,3.28064219 6.10741219,3.08465139 C6.48275456,2.8886606 6.90224858,2.79066667 7.36590681,2.79066667 C7.71181057,2.79066667 8.01723165,2.84266345 8.28217921,2.94665856 C8.54712677,3.05065368 8.7679131,3.19064501 8.9445448,3.36663675 C9.12117651,3.54262848 9.2536483,3.74261609 9.34196416,3.96660558 C9.43028001,4.19059506 9.47443728,4.42258069 9.47443728,4.66256942 C9.47443728,4.9825544 9.42476035,5.24853793 9.32540502,5.46052797 C9.22604968,5.67251802 9.10277732,5.85650662 8.95558423,6.0124993 C8.80839114,6.16849198 8.64832106,6.3084833 8.47536918,6.43247748 C8.3024173,6.55647166 8.14234721,6.69046336 7.99515412,6.8344566 C7.84796103,6.97844984 7.72468867,7.14443956 7.62533333,7.33243073 C7.525978,7.52042191 7.47630108,7.75840716 7.47630108,8.04639364 C7.47630108,8.04639364 7.47630108,7.75840716 7.47630108,8.04639364 L7.47630108,8.44237307 Z M6.2398853,10.5062659 C6.2398853,10.2742767 6.31348075,10.0782889 6.46067384,9.9182964 C6.60786692,9.75830391 6.78817575,9.67830887 7.00160573,9.67830887 C7.22239537,9.67830887 7.40638397,9.75830391 7.55357706,9.9182964 C7.70077015,10.0782889 7.77436559,10.2742767 7.77436559,10.5062659 C7.77436559,10.738255 7.70077015,10.9362427 7.55357706,11.100235 C7.40638397,11.2642273 7.22239537,11.3462222 7.00160573,11.3462222 C6.78817575,11.3462222 6.60786692,11.2642273 6.46067384,11.100235 C6.31348075,10.9362427 6.2398853,10.738255 6.2398853,10.5062659 C6.2398853,10.5062659 6.2398853,10.738255 6.2398853,10.5062659 Z M6.2398853,10.5062659" id="?" fill="#FF3700" sketch:type="MSShapeGroup"></path>
        </g>
    </g>
</svg>