<?xml version="1.0" encoding="UTF-8" standalone="no"?>
<svg width="12px" height="17px" viewBox="0 0 12 17" version="1.1" xmlns="http://www.w3.org/2000/svg" xmlns:xlink="http://www.w3.org/1999/xlink" xmlns:sketch="http://www.bohemiancoding.com/sketch/ns">
    <title>Untitled</title>
    <description>Created with Sketch (http://www.bohemiancoding.com/sketch)</description>
    <defs></defs>
    <g id="Page-1" stroke="none" stroke-width="1" fill="none" fill-rule="evenodd" sketch:type="MSPage">
        <g id="bin" sketch:type="MSLayerGroup" fill="#888888">
            <path d="M11.7,2.42857143 L8.4,2.42857143 L8.4,1.21428571 C8.4,0.546428571 7.86,0 7.2,0 L4.8,0 C4.14,0 3.6,0.546428571 3.6,1.21428571 L3.6,2.42857143 L0.3,2.42857143 C0.135,2.42857143 0,2.56517857 0,2.73214286 L0,3.33928571 C0,3.50625 0.135,3.64285714 0.3,3.64285714 L11.7,3.64285714 C11.865,3.64285714 12,3.50625 12,3.33928571 L12,2.73214286 C12,2.56517857 11.865,2.42857143 11.7,2.42857143 L11.7,2.42857143 Z M4.8252,2.42857143 L4.8,2.42857143 L4.8,1.21428571 L7.2,1.21428571 L7.2,2.42857143 L4.8252,2.42857143 L4.8252,2.42857143 Z M4.8252,2.42857143" id="Shape" sketch:type="MSShapeGroup"></path>
            <path d="M10.9764,4.25 L0.9,4.25 C0.666,4.25 0.6,4.35685714 0.6,4.55357143 L0.6,16.8020714 C0.6,16.8020714 0.666,17 0.9,17 L10.9764,17 C11.2104,17 11.4,16.8931429 11.4,16.6964286 L11.4,4.50075 C11.4,4.30403571 11.2104,4.25 10.9764,4.25 L10.9764,4.25 Z M3.6,14.875 C3.6,15.0425714 3.4656,15.1785714 3.3,15.1785714 L2.7,15.1785714 C2.5344,15.1785714 2.4,15.0425714 2.4,14.875 L2.4,6.375 C2.4,6.20742857 2.5344,6.07142857 2.7,6.07142857 L3.3,6.07142857 C3.4656,6.07142857 3.6,6.20742857 3.6,6.375 L3.6,14.875 L3.6,14.875 Z M6.6,14.875 C6.6,15.0419643 6.465,15.1785714 6.3,15.1785714 L5.7,15.1785714 C5.535,15.1785714 5.4,15.0419643 5.4,14.875 L5.4,6.375 C5.4,6.20803571 5.535,6.07142857 5.7,6.07142857 L6.3,6.07142857 C6.465,6.07142857 6.6,6.20803571 6.6,6.375 L6.6,14.875 L6.6,14.875 Z M9.6,14.875 C9.6,15.0425714 9.4656,15.1785714 9.3,15.1785714 L8.7,15.1785714 C8.5344,15.1785714 8.4,15.0425714 8.4,14.875 L8.4,6.375 C8.4,6.20742857 8.5344,6.07142857 8.7,6.07142857 L9.3,6.07142857 C9.4656,6.07142857 9.6,6.20742857 9.6,6.375 L9.6,14.875 L9.6,14.875 Z M9.6,14.875" id="Shape" sketch:type="MSShapeGroup"></path>
        </g>
    </g>
</svg>