<?xml version="1.0" encoding="UTF-8" standalone="no"?>
<svg width="18px" height="18px" viewBox="0 0 18 18" version="1.1" xmlns="http://www.w3.org/2000/svg" xmlns:xlink="http://www.w3.org/1999/xlink" xmlns:sketch="http://www.bohemiancoding.com/sketch/ns">
    <title>Error</title>
    <description>Created with Sketch (http://www.bohemiancoding.com/sketch)</description>
    <defs></defs>
    <g id="Page-1" stroke="none" stroke-width="1" fill="none" fill-rule="evenodd" sketch:type="MSPage">
        <path d="M9,0 C4.02979592,0 0,4.02906122 0,9 C0,13.9709388 4.02979592,18 9,18 C13.9702041,18 18,13.9709388 18,9 C18,4.02906122 13.9702041,0 9,0 L9,0 Z M10.4693878,14.5102041 C10.4693878,14.7122449 10.3040816,14.877551 10.1020408,14.877551 L7.89795918,14.877551 C7.69591837,14.877551 7.53061224,14.7122449 7.53061224,14.5102041 L7.53061224,12.3061224 C7.53061224,12.1040816 7.69591837,11.9387755 7.89795918,11.9387755 L10.1020408,11.9387755 C10.3040816,11.9387755 10.4693878,12.1040816 10.4693878,12.3061224 L10.4693878,14.5102041 L10.4693878,14.5102041 Z M10.4693878,6.42857143 C10.4693878,6.63061224 10.4370612,6.95828571 10.3973878,7.15591837 L9.73616327,10.6604082 C9.69722449,10.8587755 9.49959184,11.2040816 9.29681633,11.2040816 L8.72008163,11.2040816 C8.51804082,11.2040816 8.31967347,10.8580408 8.27926531,10.6604082 L7.60334694,7.2477551 C7.56293878,7.04938776 7.52987755,6.63061224 7.52987755,6.42857143 L7.52987755,3.48979592 C7.52987755,3.2877551 7.69518367,3.12244898 7.89722449,3.12244898 L10.1013061,3.12244898 C10.3033469,3.12244898 10.4686531,3.2877551 10.4686531,3.48979592 L10.4686531,6.42857143 L10.4693878,6.42857143 Z M10.4693878,6.42857143" id="Circle-exclamation" fill="#E2534C" sketch:type="MSShapeGroup"></path>
    </g>
</svg>