<?xml version="1.0" encoding="UTF-8" standalone="no"?>
<svg width="18px" height="18px" viewBox="0 0 18 18" version="1.1" xmlns="http://www.w3.org/2000/svg" xmlns:xlink="http://www.w3.org/1999/xlink" xmlns:sketch="http://www.bohemiancoding.com/sketch/ns">
    <!-- Generator: Sketch 3.0.2 (7799) - http://www.bohemiancoding.com/sketch -->
    <title>Info</title>
    <description>Created with Sketch.</description>
    <defs></defs>
    <g id="Page-1" stroke="none" stroke-width="1" fill="none" fill-rule="evenodd" sketch:type="MSPage">
        <path d="M9,0 C4.02979592,0 0,4.02906122 0,9 C0,13.9709388 4.02979592,18 9,18 C13.9702041,18 18,13.9709388 18,9 C18,4.02906122 13.9702041,0 9,0 L9,0 Z M8.26530612,4.2244898 C8.26530612,4.02244898 8.43061224,3.85714286 8.63265306,3.85714286 L10.1020408,3.85714286 C10.3040816,3.85714286 10.4693878,4.02244898 10.4693878,4.2244898 L10.4693878,5.69387755 C10.4693878,5.89591837 10.3040816,6.06122449 10.1020408,6.06122449 L8.63265306,6.06122449 C8.43061224,6.06122449 8.26530612,5.89591837 8.26530612,5.69387755 L8.26530612,4.2244898 L8.26530612,4.2244898 Z M11.9387755,13.7755102 C11.9387755,13.977551 11.7734694,14.1428571 11.5714286,14.1428571 L7.16326531,14.1428571 C6.96122449,14.1428571 6.79591837,13.977551 6.79591837,13.7755102 L6.79591837,12.3061224 C6.79591837,12.1040816 6.96122449,11.9387755 7.16326531,11.9387755 L8.26530612,11.9387755 L8.26530612,9 L7.16326531,9 C6.96122449,9 6.79591837,8.83469388 6.79591837,8.63265306 L6.79591837,7.16326531 C6.79591837,6.96122449 6.96122449,6.79591837 7.16326531,6.79591837 L10.1020408,6.79591837 C10.3040816,6.79591837 10.4693878,6.96122449 10.4693878,7.16326531 L10.4693878,11.9387755 L11.5714286,11.9387755 C11.7734694,11.9387755 11.9387755,12.1040816 11.9387755,12.3061224 L11.9387755,13.7755102 L11.9387755,13.7755102 Z" id="Info" fill="#2B506F" sketch:type="MSShapeGroup"></path>
    </g>
</svg>