<svg width="28" height="24" xmlns="http://www.w3.org/2000/svg">
 <!-- Created with SVG-edit - http://svg-edit.googlecode.com/ -->
 <g>
  <title>Layer 1</title>
  <g transform="matrix(1.12003 0 0 1.12003 -3631.6 -3855.33)" id="svg_604">
   <path fill-rule="evenodd" fill="#fff" clip-rule="evenodd" d="m3266.63184,3456.88843c0,0.27515 -0.2251,0.50024 -0.5,0.50024l-18,0c-0.2749,0 -0.5,-0.2251 -0.5,-0.50024l0,-2c0,-0.2749 0.2251,-0.49976 0.5,-0.49976l18,0c0.2749,0 0.5,0.22485 0.5,0.49976l0,2zm-21,-2c0,-0.2749 -0.2251,-0.49976 -0.5,-0.49976l-2,0c-0.2749,0 -0.5,0.22485 -0.5,0.49976l0,2c0,0.27515 0.2251,0.50024 0.5,0.50024l2,0c0.2749,0 0.5,-0.2251 0.5,-0.50024l0,-2zm21,6c0,-0.2749 -0.2251,-0.49976 -0.5,-0.49976l-18,0c-0.2749,0 -0.5,0.22485 -0.5,0.49976l0,2c0,0.27515 0.2251,0.50024 0.5,0.50024l18,0c0.2749,0 0.5,-0.2251 0.5,-0.50024l0,-2zm-21,0c0,-0.2749 -0.2251,-0.49976 -0.5,-0.49976l-2,0c-0.2749,0 -0.5,0.22485 -0.5,0.49976l0,2c0,0.27515 0.2251,0.50024 0.5,0.50024l2,0c0.2749,0 0.5,-0.2251 0.5,-0.50024l0,-2zm21,-12c0,-0.2749 -0.2251,-0.49976 -0.5,-0.49976l-18,0c-0.2749,0 -0.5,0.22485 -0.5,0.49976l0,2c0,0.27515 0.2251,0.50024 0.5,0.50024l18,0c0.2749,0 0.5,-0.2251 0.5,-0.50024l0,-2zm-21,0c0,-0.2749 -0.2251,-0.49976 -0.5,-0.49976l-2,0c-0.2749,0 -0.5,0.22485 -0.5,0.49976l0,2c0,0.27515 0.2251,0.50024 0.5,0.50024l2,0c0.2749,0 0.5,-0.2251 0.5,-0.50024l0,-2zm21,-6c0,-0.2749 -0.2251,-0.49976 -0.5,-0.49976l-18,0c-0.2749,0 -0.5,0.22485 -0.5,0.49976l0,2c0,0.27515 0.2251,0.50024 0.5,0.50024l18,0c0.2749,0 0.5,-0.2251 0.5,-0.50024l0,-2zm-21,0c0,-0.2749 -0.2251,-0.49976 -0.5,-0.49976l-2,0c-0.2749,0 -0.5,0.22485 -0.5,0.49976l0,2c0,0.27515 0.2251,0.50024 0.5,0.50024l2,0c0.2749,0 0.5,-0.2251 0.5,-0.50024l0,-2z" id="svg_2"/>
  </g>
 </g>
</svg>