<?xml version="1.0" encoding="UTF-8" standalone="no"?>
<svg width="80px" height="35px" viewBox="0 0 80 35" version="1.1" xmlns="http://www.w3.org/2000/svg" xmlns:xlink="http://www.w3.org/1999/xlink" xmlns:sketch="http://www.bohemiancoding.com/sketch/ns">
    <title>Rik logo</title>
    <description>Created with Sketch (http://www.bohemiancoding.com/sketch)</description>
    <defs>
        <path d="M48.6472441,13.7581786 C48.6472441,13.0278571 48.4058268,12.46375 47.9220472,12.0663214 C47.4888189,11.7111429 46.9181102,11.53425 46.2103937,11.53425 L42.8848819,11.53425 L42.8848819,18.9837143 L44.000315,18.9837143 L44.000315,16.0345714 L45.7119685,16.0345714 L47.2181102,18.9837143 L48.5291339,18.9837143 L46.9795276,15.9398571 C48.092126,15.6631429 48.6472441,14.9360714 48.6472441,13.7581786 C48.6472441,13.7581786 48.6472441,14.9360714 48.6472441,13.7581786 L48.6472441,13.7581786 L48.6472441,13.7581786 L48.6472441,13.7581786 L48.6472441,13.7581786 Z M46.2103937,14.9811071 L44.000315,14.9811071 L44.000315,12.5863214 L46.2103937,12.5863214 C46.6006299,12.5863214 46.9129134,12.6907857 47.1467717,12.9001786 C47.3820472,13.1095714 47.4992126,13.4057857 47.4992126,13.7892857 C47.499685,14.5836786 47.0702362,14.9811071 46.2103937,14.9811071 L46.2103937,14.9811071 L46.2103937,14.9811071 L46.2103937,14.9811071 L46.2103937,14.9811071 Z M50.4585827,18.9837143 L51.5962205,18.9837143 L51.5962205,11.53425 L50.4585827,11.53425 L50.4585827,18.9837143 L50.4585827,18.9837143 L50.4585827,18.9837143 L50.4585827,18.9837143 Z M56.8913386,14.2373214 L59.1113386,11.53425 L57.8225197,11.53425 L55.5807874,14.2897857 C55.103622,14.8785 54.8111811,15.2503929 54.7034646,15.4063929 C54.7171654,15.0948571 54.7247244,14.6547143 54.7247244,14.0873571 L54.7247244,11.53425 L53.6201575,11.53425 L53.6201575,18.9837143 L54.7247244,18.9837143 L54.7247244,16.8326786 L56.1325984,15.16125 L58.3100787,18.98325 L59.5993701,18.98325 L56.8913386,14.2373214 L56.8913386,14.2373214 L56.8913386,14.2373214 L56.8913386,14.2373214 Z M56.8913386,14.2373214" id="path-1"></path>
        <path d="M40.5004724,13.1105 C40.5004724,11.4901429 40.0988976,10.1641429 39.2962205,9.1325 C38.4354331,8.0145 37.223622,7.45503571 35.6626772,7.45503571 C34.1451969,7.45503571 32.9333858,7.95646429 32.0291339,8.95978571 C31.0951181,10.00675 30.6283465,11.4683214 30.6283465,13.3463571 C30.6283465,15.1528929 31.1168504,16.6000714 32.0948031,17.68975 C33.027874,18.707 34.1952756,19.2158571 35.596063,19.2158571 C37.1862992,19.2158571 38.5067717,18.7218571 39.5570079,17.7333929 L38.2223622,16.3140714 C37.3903937,16.9167143 36.5588976,17.2180357 35.7274016,17.2180357 C34.9837795,17.2180357 34.356378,16.9742857 33.8456693,16.4863214 C33.2910236,15.9417143 32.956063,15.1528929 32.8393701,14.1207857 L40.4352756,14.1207857 C40.4787402,13.6481429 40.5004724,13.3106071 40.5004724,13.1105 C40.5004724,13.1105 40.5004724,13.3106071 40.5004724,13.1105 L40.5004724,13.1105 L40.5004724,13.1105 L40.5004724,13.1105 L40.5004724,13.1105 Z M32.8823622,12.2924286 C33.0864567,10.4 33.9618898,9.45425 35.5086614,9.45425 C37.1862992,9.45425 38.0914961,10.4 38.2223622,12.2924286 L32.8823622,12.2924286 L32.8823622,12.2924286 L32.8823622,12.2924286 L32.8823622,12.2924286 Z M32.8823622,12.2924286" id="path-2"></path>
        <path d="M14.5152756,0.454071429 L14.5152756,7.55532143 L7.32188976,7.55532143 L7.32188976,18.8667143 L18.8310236,18.8667143 L18.8310236,11.765 L26.0253543,11.765 L26.0253543,0.454071429 L14.5152756,0.454071429 L14.5152756,0.454071429 L14.5152756,0.454071429 L14.5152756,0.454071429 Z M18.7988976,11.7482857 L14.5370079,11.7482857 L14.5370079,7.56042857 L18.7988976,7.56042857 L18.7988976,11.7482857 L18.7988976,11.7482857 L18.7988976,11.7482857 L18.7988976,11.7482857 Z M18.7988976,11.7482857" id="path-3"></path>
        <path d="M0.0959055118,4.25610714 L3.93212598,4.25610714 L3.93212598,0.486107143 L0.0959055118,0.486107143 L0.0959055118,4.25610714 L0.0959055118,4.25610714 L0.0959055118,4.25610714 L0.0959055118,4.25610714 Z M0.0959055118,15.5247857 L3.93212598,15.5247857 L3.93212598,11.7547857 L0.0959055118,11.7547857 L0.0959055118,15.5247857 L0.0959055118,15.5247857 L0.0959055118,15.5247857 L0.0959055118,15.5247857 Z M1.05448819,24.6795714 L2.97307087,24.6795714 L2.97307087,22.7941071 L1.05448819,22.7941071 L1.05448819,24.6795714 L1.05448819,24.6795714 L1.05448819,24.6795714 L1.05448819,24.6795714 Z M12.0269291,2.99882143 L10.1088189,2.99882143 L10.1088189,4.88475 L12.0269291,4.88475 L12.0269291,2.99882143 L12.0269291,2.99882143 L12.0269291,2.99882143 L12.0269291,2.99882143 Z M11.3867717,25.6216071 L15.2234646,25.6216071 L15.2234646,21.8520714 L11.3867717,21.8520714 L11.3867717,25.6216071 L11.3867717,25.6216071 L11.3867717,25.6216071 L11.3867717,25.6216071 Z M21.7743307,14.2712143 L21.7743307,16.1571429 L23.6933858,16.1571429 L23.6933858,14.2712143 L21.7743307,14.2712143 L21.7743307,14.2712143 L21.7743307,14.2712143 L21.7743307,14.2712143 Z M21.7743307,14.2712143" id="path-4"></path>
    </defs>
    <g id="Page-1" stroke="none" stroke-width="1" fill="none" fill-rule="evenodd" sketch:type="MSPage">
        <g id="Group" sketch:type="MSLayerGroup">
            <g id="Shape">
                <use fill="#FFFFFF" fill-rule="evenodd" sketch:type="MSShapeGroup" xlink:href="#path-1"></use>
                <use fill="none" xlink:href="#path-1"></use>
            </g>
            <g id="Shape">
                <use fill="#FFFFFF" fill-rule="evenodd" sketch:type="MSShapeGroup" xlink:href="#path-2"></use>
                <use fill="none" xlink:href="#path-2"></use>
            </g>
            <g id="Shape">
                <use fill="#FFFFFF" fill-rule="evenodd" sketch:type="MSShapeGroup" xlink:href="#path-3"></use>
                <use fill="none" xlink:href="#path-3"></use>
            </g>
            <g id="Shape">
                <use fill="#FFFFFF" fill-rule="evenodd" sketch:type="MSShapeGroup" xlink:href="#path-4"></use>
                <use fill="none" xlink:href="#path-4"></use>
            </g>
        </g>
    </g>
</svg>