<?xml version="1.0" encoding="UTF-8" standalone="no"?>
<svg width="18px" height="18px" viewBox="0 0 18 18" version="1.1" xmlns="http://www.w3.org/2000/svg" xmlns:xlink="http://www.w3.org/1999/xlink" xmlns:sketch="http://www.bohemiancoding.com/sketch/ns">
    <title>OK</title>
    <description>Created with Sketch (http://www.bohemiancoding.com/sketch)</description>
    <defs></defs>
    <g id="Page-1" stroke="none" stroke-width="1" fill="none" fill-rule="evenodd" sketch:type="MSPage">
        <path d="M15.3641535,2.63608163 C11.8493242,-0.878693878 6.15095129,-0.878693878 2.63612198,2.63608163 C-0.878707327,6.15085714 -0.878707327,11.8491429 2.63612198,15.3639184 C6.15095129,18.8786939 11.8493242,18.8786939 15.3641535,15.3639184 C18.8782481,11.8491429 18.8789828,6.15085714 15.3641535,2.63608163 L15.3641535,2.63608163 Z M14.1878906,6.78636735 L7.93408062,13.0393469 C7.84077307,13.1333878 7.68648499,13.1333878 7.59244274,13.0393469 L3.79842548,9.24465306 C3.70438323,9.15134694 3.70438323,8.99779592 3.79842548,8.90302041 L5.36628622,7.33591837 C5.46032847,7.24187755 5.61388184,7.24187755 5.70718939,7.33591837 L7.59317744,9.22187755 C7.6872197,9.31518367 7.84077307,9.31518367 7.93481533,9.22187755 L12.2666367,4.89085714 C12.3599443,4.79681633 12.5142324,4.79608163 12.609744,4.88938776 L14.1864212,6.44546939 C14.2811982,6.5395102 14.2811982,6.69232653 14.1878906,6.78636735 L14.1878906,6.78636735 Z M14.1878906,6.78636735" id="Circle-OK" fill="#17BA86" sketch:type="MSShapeGroup"></path>
    </g>
</svg>