<svg width="8" height="9" xmlns="http://www.w3.org/2000/svg">
 <g>
  <title>Stopper</title>
  <g id="Stopper">
   <path d="m3.87604,1.78158c-1.9717,0 -3.57604,1.60434 -3.57604,3.57604s1.60434,3.57604 3.57604,3.57604s3.57604,-1.60434 3.57604,-3.57604s-1.60434,-3.57604 -3.57604,-3.57604zm0,6.17678c-1.43399,0 -2.60075,-1.16676 -2.60075,-2.60075s1.16676,-2.60075 2.60075,-2.60075s2.60075,1.16677 2.60075,2.60075s-1.16676,2.60075 -2.60075,2.60075zm0.65019,-2.60074c0,0.23992 -0.13134,0.44733 -0.32509,0.56014l0,0.28966c0,0.0894 -0.07315,0.16937 -0.16255,0.16937l-0.32509,0c-0.08939,0 -0.16255,-0.07997 -0.16255,-0.16937l0,-0.28966c-0.19375,-0.11281 -0.32509,-0.3199 -0.32509,-0.56014s0.13134,-0.44733 0.32509,-0.56013l0,-1.184c0,-0.08939 0.07315,-0.16255 0.16255,-0.16255l0.32509,0c0.0894,0 0.16255,0.07315 0.16255,0.16255l0,1.18432c0.19376,0.11248 0.32509,0.31989 0.32509,0.55981l0,0l0,0zm-0.65019,-4.21289c-0.16515,0 -0.49024,0.01138 -0.65019,0.03056l0,-0.80266c0,-0.0894 0.07315,-0.17262 0.16255,-0.17262l0.97528,0c0.0894,0 0.16255,0.08323 0.16255,0.17262l0,0.80266c-0.15995,-0.01918 -0.48504,-0.03056 -0.65019,-0.03056l0,0l0.00001,-0.00001l-0.00001,0.00001zm3.77889,1.22007l-0.48114,0.48082c-0.09948,-0.12647 -0.20675,-0.24935 -0.32346,-0.36606c-0.11639,-0.11638 -0.23927,-0.22366 -0.36606,-0.32347l0.48081,-0.48082c0.0634,-0.06307 0.1671,-0.06307 0.23017,0l0.45968,0.45968c0.06307,0.06307 0.06307,0.16678 0,0.22984l0,0l0,0.00001z" id="svg_2"/>
  </g>
 </g>
</svg>