<?xml version="1.0" encoding="UTF-8" standalone="no"?>
<svg width="21px" height="18px" viewBox="0 0 21 18" version="1.1" xmlns="http://www.w3.org/2000/svg" xmlns:xlink="http://www.w3.org/1999/xlink" xmlns:sketch="http://www.bohemiancoding.com/sketch/ns">
    <title>Warning</title>
    <description>Created with Sketch (http://www.bohemiancoding.com/sketch)</description>
    <defs></defs>
    <g id="Page-1" stroke="none" stroke-width="1" fill="none" fill-rule="evenodd" sketch:type="MSPage">
        <path d="M20.8499048,16.3121947 L11.4846289,0.56660961 C11.2818583,0.215672358 10.9065814,0 10.5002837,0 C10.093986,0 9.71870915,0.215672358 9.51593859,0.56660961 L0.150662596,16.3121947 C-0.0513513557,16.6608776 -0.0498381426,17.0899679 0.152932415,17.4378992 C0.35645958,17.7858306 0.730979827,18 1.13576434,18 L19.8648031,18 C20.2695876,18 20.6441079,17.7858306 20.847635,17.4378992 C21.049649,17.0899679 21.0511622,16.6608776 20.8499048,16.3121947 L20.8499048,16.3121947 Z M3.09386211,15.7455851 L10.5002837,3.1231161 L17.9067053,15.7455851 L3.09386211,15.7455851 L3.09386211,15.7455851 Z M11.6351936,13.0215004 L11.6351936,14.7123116 C11.6351936,14.8678662 11.5080837,14.9941135 11.3514661,14.9941135 L9.64910134,14.9941135 C9.49248378,14.9941135 9.36537388,14.8678662 9.36537388,14.7123116 L9.36537388,13.0215004 C9.36537388,12.8659458 9.49248378,12.7396986 9.64910134,12.7396986 L11.3514661,12.7396986 C11.5080837,12.7396986 11.6351936,12.8659458 11.6351936,13.0215004 L11.6351936,13.0215004 Z M9.74292056,6.72792552 L11.2576469,6.72792552 C11.4649571,6.72792552 11.6351936,6.89700664 11.6351936,7.10290987 L11.6351936,8.51267065 C11.6351936,8.66822527 11.6102255,8.9192168 11.5799613,9.0702626 L11.0692519,11.6650941 C11.0389876,11.8161399 10.8861531,11.9882269 10.7295355,11.9882269 L10.2846509,11.9882269 C10.1280333,11.9882269 9.97519877,11.8161399 9.9441779,11.6650941 L9.42211937,9.09355822 C9.39109851,8.94251242 9.36613049,8.66822527 9.36613049,8.51267065 L9.36613049,7.10290987 C9.36537388,6.89700664 9.53561036,6.72792552 9.74292056,6.72792552 L9.74292056,6.72792552 Z M9.74292056,6.72792552" id="Warning" fill="#A09524" sketch:type="MSShapeGroup"></path>
    </g>
</svg>