<?xml version="1.0" encoding="UTF-8" standalone="no"?>
<svg width="25px" height="24px" viewBox="0 0 25 24" version="1.1" xmlns="http://www.w3.org/2000/svg" xmlns:xlink="http://www.w3.org/1999/xlink" xmlns:sketch="http://www.bohemiancoding.com/sketch/ns">
    <title>work</title>
    <description>Created with Sketch (http://www.bohemiancoding.com/sketch)</description>
    <defs>
        <path d="M12,15.25 L12,13.312 C12,13.312 10.828,8.25 6.016,8.25 C1.204,8.25 0.073,13.242 0,13.16 L0,15.25 L1,15.25 L1,23.25 L2.021,24.25 L9.959,24.25 L11.001,23.25 L11.001,15.25 L12,15.25 L12,15.25 Z M6.016,9.578 C9.422,9.578 10.524,13.25 10.524,13.25 L9.68,13.25 L2.323,13.25 L1.477,13.25 C1.477,13.25 2.609,9.578 6.016,9.578 L6.016,9.578 Z M13,20.25 L23,20.25 L24,24.25 L12,24.25 L13,20.25 L13,20.25 Z M23,18 L23,19.75 L13,19.75 L13,18 C13,17.45 13.201,17.25 13.751,17.25 L17,17.25 L17,1 C17,0.447 17.448,0 18,0 C18.552,0 19,0.447 19,1 L19,17.25 L21.751,17.25 C22.301,17.25 23,17.45 23,18 L23,18 Z M23,18" id="path-1"></path>
    </defs>
    <g id="Page-1" stroke="none" stroke-width="1" fill="none" fill-rule="evenodd" sketch:type="MSPage">
        <g id="Cleaning">
            <use fill="#FFFFFF" fill-rule="evenodd" sketch:type="MSShapeGroup" xlink:href="#path-1"></use>
            <use fill="none" xlink:href="#path-1"></use>
        </g>
    </g>
</svg>